<svg version="1.2" xmlns="http://www.w3.org/2000/svg" viewBox="0 0 189 43" width="189" height="43">
	<title>image</title>
	<style>
		.s0 { fill: #23262f } 
		.s1 { fill: #3f1f71 } 
		.s2 { fill: #2c3ea1 } 
		.s3 { fill: #ffdd00 } 
	</style>
	<g id="vanced-light">
		<path id="Path_6209" class="s0" d="m46.4 37.1q0-0.1 0-0.2-0.1-0.1-0.1-0.2-0.1-0.1-0.2-0.2-0.1-0.1-0.2-0.1-0.1-0.1-0.2-0.1-0.1-0.1-0.2-0.1-0.2-0.1-0.3-0.1-0.1 0-0.3 0-0.1 0-0.2 0-0.1 0-0.2 0-0.1 0.1-0.1 0.1-0.1 0-0.2 0.1-0.1 0-0.2 0 0 0.1-0.1 0.1-0.1 0.1-0.1 0.1-0.1 0.1-0.1 0.1-0.1 0.1-0.1 0.2 0 0-0.1 0.1 0 0.1 0 0.2 0 0 0 0.1 0 0.1 0 0.1 0 0.1 0 0.1 0 0.1 0.1 0.2 0 0 0 0.1 0 0 0.1 0 0 0.1 0.1 0.1 0 0.1 0 0.1 0.1 0 0.1 0.1 0.1 0 0.1 0 0.1 0.1 0.1 0.1 0.1 0 0.1 0 0.1 0 0.2 0.1 0.2 0 0.4 0.1l0.6 0.2q0.1 0 0.2 0 0 0 0.1 0.1 0.1 0 0.1 0 0.1 0 0.2 0.1 0.1 0 0.1 0 0.1 0.1 0.2 0.1 0.1 0 0.1 0.1 0.1 0 0.2 0.1 0.1 0 0.1 0.1 0.1 0 0.2 0.1 0 0.1 0.1 0.2 0 0 0.1 0.1 0 0.1 0.1 0.2 0 0.1 0 0.2 0 0.1 0.1 0.2 0 0.1 0 0.2 0 0.1-0.1 0.2 0 0.2 0 0.3 0 0.1-0.1 0.2 0 0.1-0.1 0.2-0.1 0.1-0.2 0.2-0.1 0.1-0.2 0.2-0.1 0.1-0.2 0.2-0.1 0.1-0.2 0.1-0.2 0.1-0.3 0.1-0.2 0.1-0.4 0.1-0.1 0-0.3 0.1-0.1 0-0.3 0-0.2 0-0.3 0-0.2 0-0.3-0.1-0.2 0-0.3 0-0.2-0.1-0.3-0.2-0.1 0-0.3-0.1-0.1 0-0.2-0.1-0.1-0.1-0.2-0.2-0.1-0.1-0.1-0.2-0.1-0.1-0.2-0.2 0-0.1-0.1-0.2 0-0.2 0-0.3-0.1-0.1-0.1-0.2h0.9q0 0.1 0 0.1 0 0.1 0 0.2 0.1 0.1 0.1 0.1 0.1 0.1 0.1 0.2 0.1 0 0.1 0.1 0.1 0.1 0.2 0.1 0 0 0.1 0.1 0.1 0 0.2 0 0.1 0.1 0.1 0.1 0.1 0 0.2 0 0.1 0 0.2 0.1 0.1 0 0.2 0 0.1 0 0.2-0.1 0.1 0 0.2 0 0.1 0 0.2 0 0.1-0.1 0.2-0.1 0.1 0 0.2-0.1 0.1 0 0.1-0.1 0.1 0 0.2-0.1 0 0 0.1-0.1 0-0.1 0.1-0.1 0-0.1 0-0.2 0.1-0.1 0.1-0.2 0-0.1 0-0.1 0-0.1 0-0.2 0-0.1 0-0.1-0.1-0.1-0.1-0.2 0 0-0.1-0.1 0 0-0.1-0.1 0 0-0.1-0.1-0.1 0-0.1 0-0.1-0.1-0.2-0.1 0 0-0.1-0.1-0.1 0-0.2 0-0.1-0.1-0.1-0.1-0.1 0-0.2 0l-0.8-0.3q-0.2 0-0.3-0.1-0.2 0-0.4-0.1-0.1-0.1-0.3-0.2-0.1-0.1-0.2-0.2-0.1-0.1-0.2-0.2-0.1-0.1-0.2-0.3 0-0.1-0.1-0.3 0-0.1 0-0.3 0-0.1 0-0.2 0.1-0.1 0.1-0.3 0-0.1 0.1-0.2 0-0.1 0.1-0.2 0.1-0.1 0.2-0.2 0.1-0.1 0.2-0.2 0.1-0.1 0.2-0.1 0.1-0.1 0.2-0.2 0.2 0 0.3-0.1 0.1 0 0.3 0 0.1-0.1 0.3-0.1 0.1 0 0.3 0 0.1 0 0.3 0 0.1 0 0.2 0.1 0.2 0 0.3 0 0.2 0.1 0.3 0.1 0.1 0.1 0.2 0.1 0.1 0.1 0.2 0.2 0.1 0.1 0.2 0.2 0.1 0 0.2 0.1 0 0.1 0.1 0.2 0.1 0.2 0.1 0.3 0 0.1 0.1 0.2 0 0.1 0 0.2zm14.7 1.7q0 0.2 0 0.4 0 0.3-0.1 0.5 0 0.2-0.1 0.4-0.1 0.3-0.2 0.5-0.1 0.1-0.2 0.3-0.1 0.2-0.2 0.3-0.1 0.2-0.3 0.3-0.1 0.1-0.3 0.2-0.3 0.2-0.7 0.3-0.4 0.1-0.8 0.1-0.4 0-0.8-0.1-0.3-0.1-0.7-0.3-0.2-0.1-0.3-0.2-0.2-0.1-0.3-0.3-0.1-0.1-0.2-0.3-0.1-0.2-0.2-0.3-0.2-0.5-0.3-0.9-0.1-0.5-0.1-0.9 0-0.5 0.1-0.9 0.1-0.5 0.3-0.9 0.1-0.2 0.2-0.4 0.1-0.1 0.2-0.3 0.1-0.1 0.3-0.3 0.1-0.1 0.3-0.2 0.4-0.2 0.7-0.3 0.4-0.1 0.8-0.1 0.4 0 0.8 0.1 0.4 0.1 0.7 0.3 0.2 0.1 0.3 0.2 0.2 0.2 0.3 0.3 0.1 0.2 0.2 0.3 0.1 0.2 0.2 0.4 0.1 0.2 0.2 0.4 0.1 0.2 0.1 0.5 0.1 0.2 0.1 0.4 0 0.2 0 0.5zm-0.8 0q0-0.2 0-0.4 0-0.2 0-0.4-0.1-0.1-0.1-0.3-0.1-0.2-0.2-0.4-0.1-0.4-0.5-0.7-0.3-0.2-0.7-0.4-0.4-0.1-0.9 0-0.4 0-0.8 0.2-0.1 0.1-0.2 0.2-0.1 0.1-0.2 0.2-0.1 0.1-0.2 0.3-0.1 0.1-0.1 0.2-0.2 0.4-0.2 0.7-0.1 0.4-0.1 0.8 0 0.3 0.1 0.7 0 0.4 0.2 0.7 0.1 0.4 0.5 0.7 0.3 0.3 0.7 0.4 0.4 0.1 0.9 0.1 0.4-0.1 0.8-0.3 0.1-0.1 0.2-0.2 0.1-0.1 0.2-0.2 0.1-0.1 0.2-0.2 0.1-0.2 0.1-0.3 0.1-0.2 0.2-0.3 0-0.2 0.1-0.4 0-0.2 0-0.4 0-0.1 0-0.3zm9.2 3.2v-6.5h0.8v5.8h3v0.7zm16.4-6.5h0.8v4.3q0 0.2 0 0.3 0 0.2-0.1 0.4 0 0.1-0.1 0.2 0 0.2-0.1 0.3-0.1 0.2-0.2 0.3-0.1 0.1-0.2 0.2-0.1 0.1-0.2 0.2-0.2 0.1-0.3 0.2-0.3 0.1-0.7 0.2-0.3 0.1-0.6 0.1-0.4 0-0.7-0.1-0.4-0.1-0.7-0.2-0.1-0.1-0.3-0.2-0.1-0.1-0.2-0.2-0.1-0.1-0.2-0.2-0.1-0.1-0.2-0.3-0.1-0.1-0.1-0.3-0.1-0.1-0.1-0.2-0.1-0.2-0.1-0.4 0-0.1 0-0.3v-4.3h0.8v4.3q0 0.1 0 0.2 0 0.1 0 0.2 0.1 0.1 0.1 0.2 0.1 0.1 0.1 0.2 0.1 0.1 0.1 0.2 0.1 0.1 0.2 0.2 0 0 0.1 0.1 0.1 0.1 0.2 0.1 0.2 0.1 0.5 0.2 0.2 0 0.4 0 0.3 0 0.5 0 0.3-0.1 0.5-0.2 0.1 0 0.2-0.1 0.1-0.1 0.1-0.1 0.1-0.1 0.2-0.2 0-0.1 0.1-0.2 0-0.1 0.1-0.2 0-0.1 0-0.2 0.1-0.1 0.1-0.2 0-0.1 0-0.2zm9 0.7v-0.7h5v0.7h-2.1v5.8h-0.8v-5.8zm14-0.7v6.5h-0.8v-6.5zm14.1 3.3q0 0.2 0 0.4 0 0.2-0.1 0.5 0 0.2-0.1 0.4 0 0.2-0.1 0.4-0.1 0.2-0.2 0.4-0.1 0.2-0.3 0.3-0.1 0.1-0.3 0.3-0.1 0.1-0.3 0.2-0.3 0.2-0.7 0.3-0.4 0.1-0.8 0.1-0.4 0-0.7-0.1-0.4-0.1-0.8-0.3-0.1-0.1-0.3-0.2-0.1-0.2-0.2-0.3-0.2-0.1-0.3-0.3-0.1-0.2-0.2-0.4-0.2-0.4-0.3-0.8-0.1-0.5-0.1-0.9 0-0.5 0.1-1 0.1-0.4 0.3-0.8 0.1-0.2 0.2-0.4 0.1-0.1 0.3-0.3 0.1-0.1 0.2-0.3 0.2-0.1 0.3-0.2 0.4-0.2 0.8-0.3 0.3-0.1 0.7-0.1 0.4 0 0.8 0.1 0.4 0.1 0.7 0.3 0.2 0.1 0.3 0.2 0.2 0.2 0.3 0.3 0.2 0.2 0.3 0.3 0.1 0.2 0.2 0.4 0.1 0.2 0.1 0.4 0.1 0.2 0.1 0.4 0.1 0.3 0.1 0.5 0 0.2 0 0.5zm-0.7 0q0-0.2 0-0.4-0.1-0.2-0.1-0.4 0-0.2-0.1-0.3 0-0.2-0.1-0.4-0.2-0.4-0.5-0.7-0.4-0.3-0.8-0.4-0.4-0.1-0.8-0.1-0.5 0.1-0.8 0.3-0.2 0.1-0.3 0.2-0.1 0.1-0.2 0.2-0.1 0.1-0.2 0.3 0 0.1-0.1 0.2-0.1 0.4-0.2 0.7-0.1 0.4-0.1 0.8 0 0.3 0.1 0.7 0.1 0.3 0.2 0.7 0.2 0.4 0.5 0.7 0.3 0.3 0.8 0.4 0.4 0.1 0.8 0.1 0.4-0.1 0.8-0.3 0.1-0.1 0.3-0.2 0.1-0.1 0.2-0.2 0.1-0.1 0.1-0.2 0.1-0.2 0.2-0.3 0.1-0.2 0.1-0.4 0.1-0.1 0.1-0.3 0-0.2 0.1-0.4 0-0.2 0-0.3zm14.3-3.3v6.5h-0.8l-3.5-5.1h-0.1v5.1h-0.8v-6.5h0.8l3.6 5.1v-5.1zm12.2 1.6q0-0.1 0-0.2-0.1-0.1-0.1-0.2-0.1-0.1-0.2-0.2-0.1-0.1-0.2-0.1-0.1-0.1-0.2-0.2-0.1 0-0.2 0-0.2-0.1-0.3-0.1-0.1 0-0.3 0-0.1 0-0.1 0-0.1 0-0.2 0-0.1 0-0.2 0.1-0.1 0-0.2 0-0.1 0.1-0.2 0.1 0 0-0.1 0.1-0.1 0-0.1 0.1-0.1 0.1-0.1 0.1-0.1 0.1-0.1 0.1 0 0.1-0.1 0.2 0 0.1 0 0.1 0 0.1 0 0.2 0 0 0 0.1 0 0.1 0 0.1 0 0.1 0.1 0.1 0 0.1 0 0.1 0.1 0.1 0.1 0.1 0 0.1 0.1 0.1 0 0 0.1 0.1 0 0 0.1 0 0 0.1 0.1 0.1 0 0 0.1 0.1 0 0 0.1 0 0 0 0.1 0 0.2 0.1 0.4 0.2l0.6 0.1q0.1 0.1 0.2 0.1 0.1 0 0.1 0 0.1 0.1 0.2 0.1 0 0 0.1 0 0.1 0.1 0.2 0.1 0 0 0.1 0.1 0.1 0 0.2 0.1 0 0 0.1 0.1 0.1 0 0.1 0.1 0.1 0 0.2 0.1 0 0.1 0.1 0.1 0 0.1 0.1 0.2 0 0.1 0.1 0.2 0 0.1 0 0.2 0.1 0 0.1 0.1 0 0.2 0 0.3 0 0.1 0 0.2-0.1 0.1-0.1 0.3 0 0.1-0.1 0.2 0 0.1-0.1 0.2-0.1 0.1-0.2 0.2-0.1 0.1-0.2 0.2-0.1 0.1-0.2 0.2-0.1 0-0.2 0.1-0.2 0.1-0.3 0.1-0.2 0.1-0.3 0.1-0.2 0-0.4 0-0.1 0.1-0.3 0-0.2 0-0.3 0-0.2 0-0.3 0-0.2 0-0.3-0.1-0.2 0-0.3-0.1-0.1 0-0.2-0.1-0.2-0.1-0.3-0.1-0.1-0.1-0.2-0.2 0-0.1-0.1-0.2-0.1-0.1-0.2-0.2 0-0.1-0.1-0.3 0-0.1 0-0.2 0-0.1-0.1-0.3h0.9q0 0.1 0 0.2 0 0.1 0 0.2 0.1 0 0.1 0.1 0.1 0.1 0.1 0.2 0.1 0 0.1 0.1 0.1 0 0.2 0.1 0 0 0.1 0.1 0.1 0 0.2 0 0.1 0 0.2 0.1 0 0 0.1 0 0.1 0 0.2 0 0.1 0 0.2 0 0.1 0 0.2 0 0.1 0 0.2 0 0.1 0 0.2-0.1 0.1 0 0.2 0 0.1-0.1 0.2-0.1 0.1 0 0.1-0.1 0.1 0 0.2-0.1 0-0.1 0.1-0.1 0-0.1 0.1-0.2 0-0.1 0-0.1 0.1-0.1 0.1-0.2 0-0.1 0-0.2 0 0 0-0.1 0-0.1 0-0.1-0.1-0.1-0.1-0.2 0 0-0.1-0.1 0 0-0.1-0.1 0 0-0.1-0.1-0.1 0-0.1-0.1-0.1 0-0.2 0 0-0.1-0.1-0.1-0.1 0-0.2-0.1-0.1 0-0.1 0-0.1 0-0.2-0.1l-0.8-0.2q-0.2 0-0.3-0.1-0.2 0-0.4-0.1-0.1-0.1-0.3-0.2-0.1-0.1-0.2-0.2-0.1-0.1-0.2-0.2-0.1-0.2-0.2-0.3 0-0.1-0.1-0.3 0-0.1 0-0.3 0-0.1 0-0.2 0.1-0.2 0.1-0.3 0-0.1 0.1-0.2 0-0.1 0.1-0.2 0.1-0.2 0.2-0.2 0.1-0.1 0.2-0.2 0.1-0.1 0.2-0.2 0.1 0 0.2-0.1 0.2 0 0.3-0.1 0.1 0 0.3-0.1 0.1 0 0.3 0 0.1 0 0.3 0 0.1 0 0.3 0 0.1 0 0.2 0 0.2 0.1 0.3 0.1 0.2 0 0.3 0.1 0.1 0.1 0.2 0.1 0.1 0.1 0.2 0.2 0.1 0 0.2 0.1 0.1 0.1 0.2 0.2 0 0.1 0.1 0.2 0.1 0.1 0.1 0.2 0 0.2 0.1 0.3 0 0.1 0 0.2z"/>
		<path id="Path_6210" class="s0" d="m62.7 25.8v-21.8l-0.5-3.5h6.2l14.7 15.4 1.7 2.3h0.4v-17.7h5.7v25.3h-5.4l-15-15.5-1.7-2.1h-0.4v17.6z"/>
		<path id="Path_6211" class="s0" d="m104 25.8q-0.6 0.1-1.2 0-0.6 0-1.3-0.1-0.6-0.1-1.1-0.3-0.6-0.2-1.2-0.4-0.4-0.2-0.8-0.5-0.3-0.2-0.6-0.6-0.4-0.3-0.6-0.7-0.2-0.4-0.4-0.8-0.2-0.5-0.3-1-0.2-0.6-0.3-1.1 0-0.5-0.1-1.1 0-0.5 0-1.1v-9.6q0-4.1 1.9-6 1.8-2 6-2h13q0.5 0 1.1 0 0.6 0 1.1 0 0.6 0.1 1.2 0.1 0.5 0.1 1.1 0.2 1.6 0.3 1.6 0.7l-0.9 3.5q-0.7-0.1-4.3-0.2-3.6-0.2-10.5-0.2h-2.2q-3.4 0-3.4 3.1v11q0 0.3 0 0.6 0 0.3 0.1 0.6 0.1 0.3 0.3 0.5 0.1 0.3 0.3 0.5 0.3 0.3 0.6 0.4 0.4 0.2 0.7 0.3 0.4 0.1 0.7 0.1 0.4 0 0.7 0h1.8q7.2 0 11.1-0.1 3.9-0.2 4.9-0.4l1.7 2.9q0 0.2-0.7 0.6-0.3 0.2-0.6 0.3-0.3 0.1-0.6 0.2-0.4 0.1-0.7 0.2-0.3 0.1-0.7 0.1-0.6 0.1-1.3 0.2-0.7 0-1.4 0.1-0.7 0-1.4 0-0.7 0.1-1.3 0z"/>
		<path id="Path_6212" class="s0" d="m127.8 25.8v-25.3h26.8v4.2h-21.1v5.9h16.1v4.3h-16.2v6.8h21.3l1.8 3.7q0 0.1-1.2 0.3-1.2 0.1-4 0.1z"/>
		<path id="Path_6213" class="s0" d="m159.9 25.8v-21.8l-0.5-3.5h20q0.7 0 1.4 0 0.7 0.1 1.4 0.2 0.6 0.1 1.3 0.3 0.6 0.1 1.3 0.4 0.4 0.2 0.8 0.4 0.4 0.3 0.7 0.6 0.4 0.3 0.6 0.7 0.3 0.4 0.5 0.9 0.2 0.5 0.3 1 0.2 0.5 0.3 1 0.1 0.6 0.1 1.1 0.1 0.5 0 1.1v9.9q0.1 0.6 0 1.1 0 0.6-0.1 1.1-0.1 0.6-0.3 1.1-0.1 0.5-0.3 1-0.2 0.5-0.4 0.9-0.3 0.3-0.6 0.7-0.4 0.3-0.8 0.6-0.3 0.2-0.8 0.4-0.6 0.2-1.3 0.4-0.6 0.2-1.3 0.3-0.7 0.1-1.4 0.1-0.7 0.1-1.4 0zm5.7-4.1h13.5q3.4 0 3.4-3v-11q0-0.3 0-0.6-0.1-0.3-0.2-0.6-0.1-0.2-0.2-0.5-0.1-0.2-0.3-0.4-0.3-0.3-0.6-0.5-0.3-0.2-0.6-0.3-0.4-0.1-0.7-0.1-0.4-0.1-0.8 0h-13.5z"/>
		<path id="Path_6214" class="s1" d="m12 25.8l-12-25.2h6l9.7 20.5h-0.4l9.7-20.5h6.5l-1.3 2.5-11.3 22.7z"/>
		<path id="Path_6215" class="s2" d="m26.5 25.8l12.5-25.8h8.4l12.5 25.8h-6.6l-2.5-5.5-7.8-15.9-7.5 15.9-2.8 5.5z"/>
		<path id="Path_6216" class="s3" d="m39.4 25.8l2.8-6.4 1-2.2 0.9 2.2 2.9 6.4z"/>
	</g>
</svg>