<svg xmlns="http://www.w3.org/2000/svg" width="188.143" height="42.173" viewBox="0 0 188.143 42.173">
  <g id="vanced-light" transform="translate(-11682 4243)">
    <path id="Path_6209" data-name="Path 6209" d="M147.038,124.881a1,1,0,0,0-.467-.756,1.791,1.791,0,0,0-1-.269,1.912,1.912,0,0,0-.762.14,1.21,1.21,0,0,0-.505.388.924.924,0,0,0-.179.56.8.8,0,0,0,.125.451,1.121,1.121,0,0,0,.327.31,2.334,2.334,0,0,0,.416.2c.145.052.278.093.4.125l.666.179a5.882,5.882,0,0,1,.569.186,2.65,2.65,0,0,1,.6.324,1.652,1.652,0,0,1,.48.518,1.5,1.5,0,0,1,.189.778,1.727,1.727,0,0,1-.278.96,1.9,1.9,0,0,1-.807.682,2.961,2.961,0,0,1-1.284.252,3,3,0,0,1-1.22-.225,1.953,1.953,0,0,1-.807-.634,1.811,1.811,0,0,1-.329-.944H144a1.028,1.028,0,0,0,.25.614,1.352,1.352,0,0,0,.557.358,2.24,2.24,0,0,0,.73.116,2.148,2.148,0,0,0,.816-.15,1.4,1.4,0,0,0,.572-.416.985.985,0,0,0,.212-.627.77.77,0,0,0-.182-.532,1.338,1.338,0,0,0-.481-.333,4.959,4.959,0,0,0-.643-.225l-.807-.231a3,3,0,0,1-1.216-.631,1.383,1.383,0,0,1-.451-1.072,1.592,1.592,0,0,1,.3-.961,1.98,1.98,0,0,1,.807-.64,2.731,2.731,0,0,1,1.136-.231,2.657,2.657,0,0,1,1.127.225,1.953,1.953,0,0,1,.781.614,1.533,1.533,0,0,1,.307.887Zm14.721,1.638a4,4,0,0,1-.376,1.793,2.81,2.81,0,0,1-1.027,1.165,2.922,2.922,0,0,1-2.983,0,2.813,2.813,0,0,1-1.027-1.165,4.473,4.473,0,0,1,0-3.585,2.809,2.809,0,0,1,1.027-1.165,2.918,2.918,0,0,1,2.983,0,2.805,2.805,0,0,1,1.027,1.165,4,4,0,0,1,.378,1.792Zm-.768,0a3.266,3.266,0,0,0-.285-1.437,2.014,2.014,0,0,0-2.919-.886,2.091,2.091,0,0,0-.765.886,3.807,3.807,0,0,0,0,2.874,2.014,2.014,0,0,0,2.919.886,2.061,2.061,0,0,0,.765-.886,3.267,3.267,0,0,0,.288-1.438Zm9.134,3.278v-6.555h.794v5.85h3.047v.7Zm16.4-6.555h.794v4.34a2.288,2.288,0,0,1-.317,1.2,2.221,2.221,0,0,1-.887.826,3.154,3.154,0,0,1-2.688,0,2.239,2.239,0,0,1-.89-.826,2.308,2.308,0,0,1-.314-1.2v-4.34h.794v4.276a1.707,1.707,0,0,0,.212.855,1.517,1.517,0,0,0,.6.586,2.2,2.2,0,0,0,1.878,0,1.488,1.488,0,0,0,.6-.586,1.707,1.707,0,0,0,.212-.855Zm9.05.7v-.7h4.916v.7H198.43V129.8h-.794v-5.851Zm13.965-.7V129.8h-.794v-6.555Zm14.152,3.277a4,4,0,0,1-.376,1.793,2.81,2.81,0,0,1-1.027,1.165,2.921,2.921,0,0,1-2.982,0,2.81,2.81,0,0,1-1.027-1.165,4.473,4.473,0,0,1,0-3.585,2.8,2.8,0,0,1,1.027-1.165,2.916,2.916,0,0,1,2.982,0,2.8,2.8,0,0,1,1.027,1.165,4,4,0,0,1,.378,1.792Zm-.768,0a3.277,3.277,0,0,0-.285-1.437,2.016,2.016,0,0,0-2.919-.886,2.091,2.091,0,0,0-.765.886,3.807,3.807,0,0,0,0,2.874,2.014,2.014,0,0,0,2.919.886,2.062,2.062,0,0,0,.765-.886,3.278,3.278,0,0,0,.287-1.437Zm14.33-3.277V129.8h-.768l-3.571-5.146h-.065V129.8h-.793v-6.555h.768l3.585,5.159h.064v-5.159Zm12.2,1.639a1.007,1.007,0,0,0-.468-.756,1.788,1.788,0,0,0-1-.269,1.912,1.912,0,0,0-.762.14,1.214,1.214,0,0,0-.505.388.929.929,0,0,0-.179.56.805.805,0,0,0,.125.451,1.122,1.122,0,0,0,.327.31,2.333,2.333,0,0,0,.416.2c.145.052.279.093.4.125l.665.179a5.959,5.959,0,0,1,.57.186,2.659,2.659,0,0,1,.6.324,1.646,1.646,0,0,1,.48.518,1.493,1.493,0,0,1,.189.778,1.727,1.727,0,0,1-.279.96,1.894,1.894,0,0,1-.807.682,2.96,2.96,0,0,1-1.284.252,3,3,0,0,1-1.219-.225,1.94,1.94,0,0,1-.807-.634,1.8,1.8,0,0,1-.33-.944h.819a1.023,1.023,0,0,0,.249.614,1.352,1.352,0,0,0,.557.358,2.238,2.238,0,0,0,.729.116,2.143,2.143,0,0,0,.816-.15,1.406,1.406,0,0,0,.573-.416.988.988,0,0,0,.211-.627.77.77,0,0,0-.183-.532,1.342,1.342,0,0,0-.48-.333,4.972,4.972,0,0,0-.644-.225l-.807-.231a3,3,0,0,1-1.216-.631,1.383,1.383,0,0,1-.451-1.072,1.593,1.593,0,0,1,.3-.961,1.98,1.98,0,0,1,.807-.64,2.728,2.728,0,0,1,1.136-.231,2.657,2.657,0,0,1,1.127.225,1.953,1.953,0,0,1,.781.614,1.528,1.528,0,0,1,.307.887Z" transform="translate(11581.362 -4330.737)" fill="#fff"/>
    <path id="Path_6210" data-name="Path 6210" d="M172.3,96.016V74.134l-.43-3.446h6.2l14.646,15.334,1.68,2.328h.474V70.688h5.686V96.016h-5.471L180.1,80.423,178.42,78.4h-.43V96.013Z" transform="translate(11572.37 -4313.171)" fill="#fff"/>
    <path id="Path_6211" data-name="Path 6211" d="M224.842,96a10.864,10.864,0,0,1-4.781-.861,4.818,4.818,0,0,1-2.412-2.584,11.529,11.529,0,0,1-.689-4.265V78.684q0-4.135,1.852-6.074,1.852-1.981,6.03-1.981h12.966a22.3,22.3,0,0,1,4.523.345q1.594.3,1.594.646l-.861,3.575q-.732-.129-4.35-.258-3.576-.172-10.425-.172h-2.2q-3.446,0-3.447,3.058V88.806a3.3,3.3,0,0,0,.732,2.283,3.785,3.785,0,0,0,2.714.775h1.766q7.151,0,11.07-.129,3.963-.172,4.91-.345l1.767,2.843q0,.216-.732.647a8.186,8.186,0,0,1-2.584.775,32.712,32.712,0,0,1-5.471.345Z" transform="translate(11561.147 -4313.155)" fill="#fff"/>
    <path id="Path_6212" data-name="Path 6212" d="M259.108,96.016V70.688H285.9v4.135H264.8v5.944h16.1v4.265H264.794v6.849h21.279l1.723,3.661q0,.172-1.163.345-1.163.129-4.005.129Z" transform="translate(11550.654 -4313.171)" fill="#fff"/>
    <path id="Path_6213" data-name="Path 6213" d="M301.727,96.011V74.129l-.43-3.446h19.987a13.068,13.068,0,0,1,5.341.861,4.925,4.925,0,0,1,2.629,2.584,10.6,10.6,0,0,1,.732,4.221V88.3a11.052,11.052,0,0,1-.732,4.307,4.772,4.772,0,0,1-2.584,2.542,13.2,13.2,0,0,1-5.384.861Zm5.686-4.135h13.525q3.317,0,3.359-3.058V77.834a3.147,3.147,0,0,0-.732-2.11,3.23,3.23,0,0,0-2.629-.9H307.414Z" transform="translate(11540.151 -4313.166)" fill="#fff"/>
    <path id="Path_6214" data-name="Path 6214" d="M101.017,96.03,89,70.746h6.03l9.649,20.545h-.388l9.694-20.546h6.48l-1.311,2.583-11.243,22.7Z" transform="translate(11593 -4313.185)" fill="#3f1f71"/>
    <path id="Path_6215" data-name="Path 6215" d="M124.271,95.845,136.779,70h8.412l12.468,25.845h-6.574l-2.519-5.582-7.749-15.845-7.535,15.847-2.774,5.582Z" transform="translate(11584.22 -4313)" fill="#2c3ea1"/>
    <path id="Path_6216" data-name="Path 6216" d="M141.477,101.556,144.3,95.1l.945-2.154L146.2,95.1l2.814,6.459Z" transform="translate(11579.937 -4318.711)" fill="#fd0"/>
  </g>
</svg>
